<svg width="151" height="14" viewBox="0 0 151 14" fill="none" xmlns="http://www.w3.org/2000/svg">
<path d="M139.994 8.19284L137.274 14L139.47 13.8533C142.687 9.9805 142.373 10.4349 144.225 8.2034H149.799C150.609 8.2034 151.009 7.59859 151 7.00019C151.009 6.40179 150.609 5.79736 149.799 5.79736H144.226C142.374 3.56589 142.687 4.01988 139.471 0.147055L137.274 0L139.994 5.80716C139.994 5.80716 133.121 5.79132 133.014 5.8049L131.325 3.7269H130L131.087 6.38294V7.61631L130 10.2731H131.324L133.014 8.19435C133.121 8.20868 139.994 8.19284 139.994 8.19284Z" fill="#030104"/>
<line x1="130" y1="7" x2="-8.74228e-08" y2="6.99999" stroke="black" stroke-width="2"/>
</svg>
