<svg width="518" height="162" viewBox="0 0 518 162" fill="none" xmlns="http://www.w3.org/2000/svg">
<path d="M262.595 38.7419H276.516V50.9143H262.595V38.7419ZM262.596 57.994H276.516V109.178H262.596V57.994ZM297.704 66.1756H298.012C301.185 60.388 304.767 57.3945 310.908 57.3945C312.442 57.3945 313.365 57.4951 314.184 57.794V69.6669H313.876C304.767 68.7697 298.216 73.4588 298.216 84.2339V109.178H284.296V57.9935H297.704V66.1756ZM341.305 38.7419H355.225V50.9143H341.305V38.7419ZM341.306 57.994H355.227V109.178H341.306V57.994ZM376.617 64.9778H376.923C380.506 59.4902 385.315 56.5967 392.48 56.5967C403.332 56.5967 410.598 64.5783 410.598 75.7534V109.178H396.678V77.7485C396.678 72.2609 393.402 68.3696 387.568 68.3696C381.427 68.3696 376.923 73.1588 376.923 80.1431V109.178H363.004V57.9935H376.617V64.9778H376.617ZM416.328 83.536C416.328 68.3702 426.869 56.5973 442.223 56.5973C459.112 56.5973 468.118 69.1686 468.118 87.4268H430.043C431.067 95.3084 435.57 100.198 443.451 100.198C448.876 100.198 452.049 97.8035 453.584 93.9116H467.3C465.356 102.992 457.064 110.675 443.554 110.675C426.154 110.674 416.328 98.8002 416.328 83.536ZM430.247 78.0485H453.584C453.174 71.5626 448.774 67.0723 442.428 67.0723C435.058 67.0723 431.475 71.3631 430.247 78.0485ZM471.325 92.6143H484.221C485.143 98.5013 489.441 101.095 495.686 101.095C501.828 101.095 505.307 98.8002 505.307 95.2095C505.307 90.3203 498.654 89.8208 491.49 88.4252C482.072 86.629 472.861 84.1344 472.861 72.9599C472.861 61.8854 482.278 56.5973 494.253 56.5973C508.071 56.5973 515.747 63.2821 516.771 73.5582H504.182C503.567 68.0713 499.984 66.0756 494.048 66.0756C488.624 66.0756 485.041 68.0713 485.041 71.7626C485.041 76.1523 492.001 76.5518 499.473 78.0491C508.276 79.8447 518 82.2393 518 94.2122C518 104.489 508.992 110.675 495.891 110.675C480.639 110.674 472.145 103.491 471.325 92.6143V92.6143ZM229.752 38.7419H213.55L184.257 109.178H200.838L206.263 94.7106H236.152L241.678 109.178H258.362L229.752 38.7419ZM210.255 82.8371L221.003 52.9043L232.056 82.8365H210.255V82.8371ZM319.606 38.7419H333.528V109.178H319.606V38.7419Z" fill="#747679"/>
<path d="M166.191 81.0174C166.191 125.766 129.014 162 83.1206 162C37.2215 162 0 125.766 0 81.0174C0 36.2685 37.2215 0 83.1206 0C129.014 0 166.191 36.2685 166.191 81.0174Z" fill="#BED600"/>
<path d="M77.0656 38.7385C63.9768 38.7385 55.4856 39.4438 49.339 41.668C39.0098 45.5902 31.8765 53.8107 31.8765 64.6137C31.8765 73.6114 36.1745 80.1276 48.6132 87.6223C61.8849 95.465 64.5326 98.0567 64.5326 102.782C64.5326 107.954 59.334 113.842 45.9579 113.842C41.2893 113.842 34.2574 113.212 29.7641 112.14L27.62 111.613C26.424 114.739 23.7089 122.132 22.8811 124.815L25.004 125.424C29.0459 126.68 38.6381 127.662 45.5105 127.662C68.3727 127.662 82.0132 114.198 82.0132 100.099C82.0132 91.4353 77.979 84.8511 64.3414 76.5563C57.5007 72.4547 54.0146 69.7949 51.8975 67.7358C50.1815 65.5864 49.9915 63.9868 49.9915 62.2969C49.9915 60.6835 50.3597 58.8244 51.4508 57.4626C52.631 55.7789 54.7955 54.7062 57.7252 53.821C60.7364 52.8471 66.3155 52.8214 75.0048 52.8214H83.0955L88.8728 38.7391H77.0656V38.7385ZM138.21 38.7385H97.5527L91.7749 52.8203H105.251C114.319 52.8203 116.064 52.63 118.341 52.63C115.053 59.9606 95.241 109.175 95.241 109.175H112.009C112.009 109.175 137.092 47.9117 139.751 41.4886C140.487 40.0553 140.121 38.7385 138.21 38.7385Z" fill="white"/>
</svg>
