<svg width="518" height="162" viewBox="0 0 518 162" fill="none" xmlns="http://www.w3.org/2000/svg">
<path d="M59.2969 83.0046C65.3637 60.2129 58.4444 36.3294 41.8948 23.6732C19.3517 37.9437 6.35209 64.7771 11.0473 92.7336C12.5947 101.975 15.9457 110.469 20.6641 117.911C38.291 113.004 53.7892 103.712 59.2963 83.0046H59.2969ZM89.725 148.777C126.933 142.53 152.02 107.303 145.768 70.1085C140.569 39.1488 115.327 16.5868 85.562 13.4698C79.5539 12.839 73.3474 13.0099 67.0864 14.0564C59.8746 15.2638 52.905 17.6276 46.4466 21.0566C79.2379 32.1799 96.8696 49.0853 98.092 66.4103C98.6921 77.1049 93.7214 84.8405 87.1897 91.1463L133.559 87.9079C134.871 87.8174 135.281 89.3465 133.693 89.8021L23.0952 121.511C34.3533 137.019 51.8362 147.334 71.2543 149.364C77.4092 150.008 83.6233 149.811 89.725 148.778V148.777ZM85.9901 9.39684C122.413 13.1905 150.821 43.9701 150.834 81.3946C150.848 121.385 118.435 153.821 78.4394 153.834C38.4446 153.848 6.01348 121.439 6 81.4437C5.98652 41.4495 38.395 9.01402 78.3903 9C80.952 9 83.491 9.14019 85.9901 9.39684Z" fill="white"/>
<path d="M11.0474 92.7383C12.5948 101.976 15.9458 110.469 20.6642 117.912C38.2911 113.004 53.7893 103.713 59.3019 83.0051C65.3639 60.2128 58.4446 36.3293 41.8907 23.6726C19.3513 37.9442 6.35221 64.7818 11.0474 92.7383ZM145.769 70.1046C152.02 107.303 126.933 142.531 89.7251 148.777C83.622 149.811 77.4065 150.008 71.2501 149.364C51.8407 147.334 34.3486 137.019 23.0954 121.511L133.694 89.802C135.282 89.342 134.871 87.8178 133.559 87.9078L87.1904 91.1461C93.7215 84.8404 98.6922 77.1048 98.0926 66.4102C96.8698 49.0852 79.238 32.1798 46.4462 21.0565C52.9047 17.6275 59.8745 15.2637 67.0865 14.0563C73.3475 13.0098 79.554 12.8383 85.5621 13.4697C115.327 16.5861 140.568 39.1487 145.769 70.1046" fill="#C70A0C"/>
<path d="M493.461 78.5958V54.7845H469.586V78.5958H456.483V21.8794H469.586V44.4732H493.461V21.8799H506.663V78.5958H493.461ZM211.037 21.8799V57.3871C211.037 61.3113 211.614 64.7076 212.755 67.4682C213.887 70.2061 215.529 72.4836 217.636 74.2338C219.76 76.0023 222.327 77.3055 225.254 78.1083C228.231 78.9295 231.591 79.3485 235.24 79.3485C238.885 79.3485 242.214 78.9295 245.127 78.1083C247.996 77.3055 250.441 76.0066 252.403 74.2521C254.36 72.5019 255.899 70.2245 256.972 67.4816C258.055 64.7302 258.596 61.3339 258.596 57.3871V21.8799H246.336V57.0075C246.336 60.585 245.448 63.4761 243.698 65.5961C241.907 67.7566 239.061 68.8528 235.24 68.8528C231.483 68.8528 228.659 67.7609 226.837 65.6053C225.051 63.4896 224.144 60.5985 224.144 57.0081V21.8799H211.037ZM173.238 78.6044V32.4705H157.83V21.8805H201.844V26.9596C201.844 29.9995 199.377 32.4711 196.336 32.4711H186.345V78.6049L173.238 78.6044ZM383.868 21.8751H396.976V78.5914H383.868V21.8751ZM340.219 52.1457L340.661 52.7097L357.404 74.2834C359.533 77.0305 362.749 78.6092 366.227 78.6092H376.664L352.677 48.0997L352.326 47.6484L352.677 47.202L372.397 21.8573H358.757L340.674 46.3043L340.219 46.8952L340.215 45.8713V21.8573H327.107V78.5774H340.215V53.1562L340.219 52.1457ZM283.81 47.8382H291.451C294.203 47.8382 296.3 47.0801 297.68 45.5963C299.047 44.126 299.742 42.2135 299.742 39.9177C299.742 37.5631 299.065 35.628 297.734 34.1576C296.381 32.6598 294.27 31.9065 291.451 31.9065H283.81V47.8382ZM310.021 78.5866C306.137 78.5866 302.479 76.5253 300.472 73.2056L290.273 56.3675H283.81V78.5866H270.712V21.8799H294.067C300.066 21.8799 304.766 23.4452 308.032 26.5347C311.289 29.6156 312.939 33.8373 312.939 39.0787C312.939 41.7396 312.231 44.4371 310.833 47.0936C309.453 49.7054 307.008 51.8438 303.557 53.4452L302.799 53.7967L318.713 78.5866H310.021ZM407.733 76.1867V65.3114C411.906 67.2336 417.282 69.1504 422.839 69.1504C429.235 69.1504 432.478 66.9581 432.478 62.7547C432.478 57.8201 428.125 57.2739 419.411 53.526C413.48 50.8787 407.828 46.7647 407.828 37.2654C407.828 26.2101 416.263 21 427.94 21C434.147 21 439.433 22.4612 442.397 23.5579V34.1576C439.433 32.7865 434.147 31.1398 428.865 31.1398C423.118 31.1398 420.431 33.2421 420.431 36.8956C420.431 40.734 423.678 41.9245 429.515 44.1168C437.02 47.8603 445.735 49.507 445.735 62.299C445.735 73.3544 436.93 79.3851 425.158 79.3851C417.927 79.3851 412.185 78.104 407.733 76.1867Z" fill="black"/>
<path d="M427.006 84.2607V140.982L462.522 140.981V130.395H440.114V116.52H459.161V107.053H440.114V94.8513H457.078C460.077 94.8513 462.522 92.4115 462.522 89.4072V84.2607H427.006Z" fill="black"/>
<path d="M297.427 84.2618V140.977L331.45 140.978V130.761H310.53V90.9962C310.53 87.2839 307.508 84.2618 303.796 84.2618H297.427Z" fill="black"/>
<path d="M216.295 84.2882V140.968H229.398L229.403 84.2882H216.295Z" fill="black"/>
<path d="M473.05 127.707V138.577C477.497 140.495 483.243 141.776 490.474 141.776C502.242 141.776 511.047 135.745 511.047 124.69C511.047 111.898 502.337 110.251 494.827 106.507L494.708 106.463C488.946 104.299 485.747 103.098 485.747 99.2904C485.747 95.6369 488.435 93.5352 494.182 93.5352C499.463 93.5352 504.745 95.1813 507.714 96.5481V85.9484C504.745 84.8517 499.464 83.3905 493.253 83.3905C481.575 83.3905 473.14 88.6006 473.14 99.656C473.14 109.16 478.796 113.269 484.728 115.921C493.438 119.664 497.795 120.211 497.795 125.145C497.795 129.349 494.552 131.541 488.155 131.541C482.594 131.541 477.217 129.624 473.05 127.707Z" fill="black"/>
<path d="M373.114 84.2705H364.99V140.982H376.474V109.665C376.474 106.937 376.289 104.023 376.194 101.564H376.379C377.7 104.113 379.582 107.482 381.372 110.302L400.61 140.982H414.98V84.271H403.497V115.492C403.497 118.041 403.587 121.591 403.776 124.14H403.497C402.27 121.5 400.199 117.77 398.414 114.947L382.595 89.5339C380.556 86.2595 376.97 84.2705 373.114 84.2705Z" fill="black"/>
<path d="M339.885 84.2882V140.968H352.988V84.2882H339.885Z" fill="black"/>
<path fill-rule="evenodd" clip-rule="evenodd" d="M280.733 140.968C276.849 140.968 273.187 138.907 271.179 135.591L260.986 118.754H254.522V140.968H241.423V84.2656H264.775C270.778 84.2656 275.473 85.8308 278.744 88.9209C282 92.0012 283.651 96.2235 283.651 101.464C283.651 104.126 282.943 106.823 281.54 109.48C280.164 112.087 277.715 114.225 274.27 115.831L273.511 116.182L289.425 140.968L280.733 140.968ZM262.163 110.22H254.522L254.523 94.2884H262.163C264.978 94.2884 267.093 95.046 268.442 96.539C269.777 98.0093 270.453 99.9493 270.453 102.299C270.453 104.599 269.759 106.507 268.392 107.982C267.007 109.466 264.914 110.22 262.163 110.22Z" fill="black"/>
<path fill-rule="evenodd" clip-rule="evenodd" d="M187.441 84.257H172.389L151 140.977H160.441C162.84 140.977 164.956 139.448 165.704 137.175L167.901 130.517H190.905L194.27 140.977H208.469L187.441 84.257ZM176.395 105.979L171.248 120.314H187.545L182.588 105.979C182.452 105.586 182.317 105.193 182.182 104.803C181.181 101.907 180.221 99.1307 179.633 96.8414H179.444C178.682 99.3492 177.536 102.755 176.395 105.979Z" fill="black"/>
</svg>
